<?xml version="1.0" encoding="UTF-8" standalone="no"?> <svg    xmlns:dc="http://purl.org/dc/elements/1.1/"    xmlns:cc="http://creativecommons.org/ns#"    xmlns:rdf="http://www.w3.org/1999/02/22-rdf-syntax-ns#"    xmlns:svg="http://www.w3.org/2000/svg"    xmlns="http://www.w3.org/2000/svg"    height="30"    width="20"    id="svg2"    version="1.1"    viewBox="0 0 99.999998 150">   <metadata      id="metadata13">     <rdf:RDF>       <cc:Work          rdf:about="">         <dc:format>image/svg+xml</dc:format>         <dc:type            rdf:resource="http://purl.org/dc/dcmitype/StillImage" />         <dc:title></dc:title>       </cc:Work>     </rdf:RDF>   </metadata>   <defs      id="defs11" />   <g      transform="translate(-433.251,-346.37)"      id="layer1">     <path        id="path5"        d="m 483.21,349.07 c -26.086,0 -47.197,21.194 -47.197,47.28 0,29.694 21.474,40.357 29.27,51.847 7.7962,11.49 16.549,24.129 17.926,46.845 1.3793,-22.652 9.0355,-33.682 17.51,-46.845 8.4743,-13.163 29.77,-25.761 29.77,-51.847 0,-26.086 -21.194,-47.28 -47.28,-47.28 z"        style="color:#000000;fill:#37c837;stroke:#000000;stroke-width:2.64499998" />     <path        id="path7"        transform="matrix(2.645,0,0,2.645,-719.05,-569.22)"        d="m 459.64,364.77 c 0,2.8107 -2.2786,5.0893 -5.0893,5.0893 -2.8107,0 -5.0893,-2.2786 -5.0893,-5.0893 0,-2.8107 2.2786,-5.0893 5.0893,-5.0893 2.8107,0 5.0893,2.2786 5.0893,5.0893 z"        style="color:#000000;fill:#000000" />   </g> </svg>
