<?xml version="1.0" encoding="UTF-8" standalone="no"?>
<!-- Created with Inkscape (http://www.inkscape.org/) -->

<svg
   xmlns:dc="http://purl.org/dc/elements/1.1/"
   xmlns:cc="http://creativecommons.org/ns#"
   xmlns:rdf="http://www.w3.org/1999/02/22-rdf-syntax-ns#"
   xmlns:svg="http://www.w3.org/2000/svg"
   xmlns="http://www.w3.org/2000/svg"
   xmlns:sodipodi="http://sodipodi.sourceforge.net/DTD/sodipodi-0.dtd"
   xmlns:inkscape="http://www.inkscape.org/namespaces/inkscape"
   width="210mm"
   height="297mm"
   viewBox="0 0 210 297"
   version="1.1"
   id="svg8"
   inkscape:version="0.92.1 r15371"
   sodipodi:docname="userLocation.svg"
   inkscape:export-filename="/home/mholmes/WorkData/BreezeMap/js/userLocation.png"
   inkscape:export-xdpi="305.81229"
   inkscape:export-ydpi="305.81229">
  <defs
     id="defs2" />
  <sodipodi:namedview
     id="base"
     pagecolor="#ffffff"
     bordercolor="#666666"
     borderopacity="1.0"
     inkscape:pageopacity="0.0"
     inkscape:pageshadow="2"
     inkscape:zoom="22.4"
     inkscape:cx="156.5805"
     inkscape:cy="777.01606"
     inkscape:document-units="mm"
     inkscape:current-layer="layer1"
     showgrid="false"
     inkscape:window-width="1920"
     inkscape:window-height="1163"
     inkscape:window-x="1920"
     inkscape:window-y="0"
     inkscape:window-maximized="1" />
  <metadata
     id="metadata5">
    <rdf:RDF>
      <cc:Work
         rdf:about="">
        <dc:format>image/svg+xml</dc:format>
        <dc:type
           rdf:resource="http://purl.org/dc/dcmitype/StillImage" />
        <dc:title></dc:title>
      </cc:Work>
    </rdf:RDF>
  </metadata>
  <g
     inkscape:label="Layer 1"
     inkscape:groupmode="layer"
     id="layer1">
    <g
       aria-label="⌖"
       style="font-style:normal;font-weight:normal;font-size:4.23333311px;line-height:1;font-family:sans-serif;letter-spacing:0px;word-spacing:0px;fill:#ff0000;fill-opacity:1;stroke:#ffff00;stroke-width:0.265;stroke-opacity:1;stroke-miterlimit:4;stroke-dasharray:none;fill-rule:nonzero"
       id="text4491">
      <path
         d="m 39.575523,90.84194 q 0.258233,0.0254 0.436033,0.211667 0.182033,0.182033 0.207433,0.427567 h 0.389467 v 0.173566 h -0.389467 q -0.0254,0.245534 -0.207433,0.427567 -0.1778,0.182033 -0.436033,0.207433 v 0.3937 h -0.1651 v -0.3937 q -0.2413,-0.0254 -0.427567,-0.2032 -0.182033,-0.182033 -0.211666,-0.4318 h -0.389467 v -0.173566 h 0.389467 q 0.0254,-0.245534 0.2032,-0.427567 0.182033,-0.186267 0.436033,-0.211667 v -0.385233 h 0.1651 z m 0.436033,0.639234 q -0.0254,-0.1651 -0.148166,-0.287867 -0.118534,-0.122767 -0.287867,-0.148167 v 0.436034 z m -0.601133,0 V 91.04514 q -0.160867,0.0254 -0.283633,0.148167 -0.122767,0.118533 -0.148167,0.287867 z m 0.601133,0.173566 h -0.436033 v 0.427567 q 0.160867,-0.02117 0.283633,-0.1397 0.127,-0.122767 0.1524,-0.287867 z m -0.601133,0.427567 V 91.65474 h -0.4318 q 0.02963,0.1651 0.148167,0.283634 0.122766,0.118533 0.283633,0.143933 z"
         style="stroke-width:0.265;fill:#ff0000;fill-opacity:1;stroke:#ffff00;stroke-opacity:1;stroke-miterlimit:4;stroke-dasharray:none;fill-rule:nonzero"
         id="path4493" />
    </g>
    <g
       aria-label="⌖"
       style="font-style:normal;font-weight:normal;font-size:4.23333311px;line-height:1;font-family:sans-serif;letter-spacing:0px;word-spacing:0px;fill:#ff0000;fill-opacity:1;fill-rule:nonzero;stroke:none;stroke-width:0.26499999;stroke-miterlimit:4;stroke-dasharray:none;stroke-opacity:1"
       id="text4491-1">
      <path
         inkscape:connector-curvature="0"
         d="m 39.575523,90.84194 q 0.258233,0.0254 0.436033,0.211667 0.182033,0.182033 0.207433,0.427567 h 0.389467 v 0.173566 h -0.389467 q -0.0254,0.245534 -0.207433,0.427567 -0.1778,0.182033 -0.436033,0.207433 v 0.3937 h -0.1651 v -0.3937 q -0.2413,-0.0254 -0.427567,-0.2032 -0.182033,-0.182033 -0.211666,-0.4318 h -0.389467 v -0.173566 h 0.389467 q 0.0254,-0.245534 0.2032,-0.427567 0.182033,-0.186267 0.436033,-0.211667 v -0.385233 h 0.1651 z m 0.436033,0.639234 q -0.0254,-0.1651 -0.148166,-0.287867 -0.118534,-0.122767 -0.287867,-0.148167 v 0.436034 z m -0.601133,0 V 91.04514 q -0.160867,0.0254 -0.283633,0.148167 -0.122767,0.118533 -0.148167,0.287867 z m 0.601133,0.173566 h -0.436033 v 0.427567 q 0.160867,-0.02117 0.283633,-0.1397 0.127,-0.122767 0.1524,-0.287867 z m -0.601133,0.427567 V 91.65474 h -0.4318 q 0.02963,0.1651 0.148167,0.283634 0.122766,0.118533 0.283633,0.143933 z"
         style="fill:#ff0000;fill-opacity:1;fill-rule:nonzero;stroke:none;stroke-width:0.26499999;stroke-miterlimit:4;stroke-dasharray:none;stroke-opacity:1"
         id="path4493-5" />
    </g>
  </g>
</svg>
